<svg id="Layer_1_1_" enable-background="new 0 0 64 64" height="512" viewBox="0 0 64 64" width="512" xmlns="http://www.w3.org/2000/svg"><path d="m2.10059 43.98828c.04199.42578.35059.77832.76758.875l2.50098.58398c.13184.63965.30078 1.27148.50586 1.8916l-1.86328 1.74609c-.3125.29199-.4043.75195-.22754 1.1416.54395 1.20117 1.21387 2.35938 1.99316 3.44043.25.34668.68945.49805 1.10254.37305l2.42383-.7373c.43652.49023.90234.95703 1.39355 1.39355l-.73828 2.42383c-.12402.40918.02539.85254.37305 1.10254 1.08008.77832 2.23828 1.44922 3.44141 1.99316.3916.17578.84863.08496 1.1416-.22754l1.74609-1.86426c.61914.20508 1.25195.375 1.8916.50684l.58398 2.50098c.09668.41699.44922.72559.875.76758.6748.06641 1.34375.10059 1.98828.10059s1.31348-.03418 1.98828-.10059c.42578-.04199.77832-.35059.875-.76758l.58398-2.50098c.63965-.13184 1.27148-.30078 1.8916-.50586l1.74609 1.86328c.29395.3125.75195.40332 1.1416.22754 1.20117-.54395 2.35938-1.21387 3.44043-1.99316.34766-.25.49707-.69336.37305-1.10254l-.7373-2.42383c.49023-.43652.95703-.90234 1.39355-1.39355l2.42383.73828c.40723.125.85254-.02637 1.10254-.37305.77832-1.08008 1.44922-2.23828 1.99316-3.44141.17676-.38965.08496-.84961-.22754-1.1416l-1.86327-1.74608c.20508-.62012.37402-1.25195.50586-1.8916l2.50098-.58398c.41699-.09668.72559-.44922.76758-.875.0664-.67481.10058-1.34376.10058-1.98829s-.03418-1.31348-.10059-1.98828c-.04199-.42578-.35059-.77832-.76758-.875l-2.50098-.58398c-.13184-.63965-.30078-1.27148-.50586-1.8916l1.86328-1.74609c.3125-.29199.4043-.75195.22754-1.1416-.54395-1.20117-1.21387-2.35938-1.99316-3.44043-.25-.34766-.69141-.49902-1.10254-.37305l-2.42383.7373c-.43652-.49023-.90234-.95703-1.39355-1.39355l.73828-2.42383c.12402-.40918-.02539-.85254-.37305-1.10254-1.08008-.77832-2.23828-1.44922-3.44141-1.99316-.38965-.17383-.84766-.08398-1.1416.22754l-1.74609 1.86426c-.61914-.20508-1.25195-.375-1.8916-.50684l-.58398-2.50098c-.09668-.41699-.44922-.72559-.875-.76758-1.34961-.13281-2.62695-.13281-3.97656 0-.42578.04199-.77832.35059-.875.76758l-.58398 2.50098c-.63965.13184-1.27148.30078-1.8916.50586l-1.74609-1.86328c-.29297-.31152-.75-.40137-1.1416-.22754-1.20117.54395-2.35938 1.21387-3.44043 1.99316-.34766.25-.49707.69336-.37305 1.10254l.7373 2.42383c-.49121.4375-.95801.90332-1.39355 1.39258l-2.42383-.7373c-.4082-.12402-.85254.02637-1.10254.37305-.77832 1.08008-1.44922 2.23828-1.99316 3.44141-.17676.38965-.08496.84961.22754 1.1416l1.86426 1.74609c-.20508.61914-.375 1.25195-.50684 1.8916l-2.50098.58398c-.41699.09668-.72559.44922-.76758.875-.06641.67479-.10059 1.34374-.10059 1.98827s.03418 1.31348.10059 1.98828zm1.93359-3.07031 2.42676-.56641c.39355-.0918.69336-.41211.75879-.81152.1582-.95801.41113-1.90332.75195-2.80957.14258-.37891.04297-.80566-.25195-1.08203l-1.80664-1.69336c.32129-.6416.68457-1.26758 1.08301-1.87012l2.35059.71582c.38672.11719.80664-.00977 1.06348-.32227.61719-.75098 1.31348-1.44727 2.06934-2.06836.31152-.25684.43848-.67676.32129-1.06348l-.71484-2.35059c.60254-.39941 1.22852-.76172 1.87012-1.08398l1.69238 1.80664c.27637.29492.70312.39453 1.08105.25293.9082-.34082 1.85352-.59375 2.81055-.75195.39941-.06543.71973-.36523.81152-.75879l.56641-2.42676c.73438-.04492 1.42969-.04492 2.16406 0l.56641 2.42676c.0918.39355.41211.69336.81152.75879.95801.1582 1.90332.41113 2.80957.75195.37891.14453.80566.04297 1.08203-.25195l1.69336-1.80664c.6416.32129 1.26758.68457 1.87012 1.08301l-.71582 2.35059c-.11719.38672.00977.80664.32129 1.06348.75391.61914 1.4502 1.31543 2.06934 2.06934.25684.31152.67578.43945 1.06348.32129l2.35059-.71484c.39941.60254.76172 1.22852 1.08398 1.87012l-1.80664 1.69238c-.29492.27637-.39453.70215-.25293 1.08105.34082.9082.59375 1.85352.75195 2.81055.06543.39941.36523.71973.75879.81152l2.42676.56641c.02243.36718.03415.7285.03415 1.08202s-.01172.71484-.03418 1.08203l-2.42676.56641c-.39355.0918-.69336.41211-.75879.81152-.1582.95703-.41113 1.90234-.75195 2.81055-.1416.37891-.04199.80469.25293 1.08105l1.80664 1.69238c-.32227.64258-.68555 1.26855-1.08398 1.87109l-2.35059-.71582c-.3877-.11914-.80664.00977-1.06348.32129-.61914.75391-1.31543 1.4502-2.06934 2.06934-.31152.25684-.43848.67676-.32129 1.06348l.71484 2.35059c-.60254.39941-1.22852.76172-1.87012 1.08398l-1.69238-1.80664c-.27637-.2959-.70508-.39551-1.08105-.25293-.9082.34082-1.85352.59375-2.81055.75195-.39941.06543-.71973.36523-.81152.75879l-.56641 2.42676c-.73438.04492-1.42969.04492-2.16406 0l-.56641-2.42676c-.0918-.39355-.41211-.69336-.81152-.75879-.95801-.1582-1.90332-.41113-2.80957-.75195-.38086-.14551-.80566-.04395-1.08203.25195l-1.69336 1.80664c-.6416-.32129-1.26758-.68457-1.87012-1.08301l.71582-2.35059c.11719-.38672-.00977-.80664-.32129-1.06348-.75391-.61914-1.4502-1.31543-2.06934-2.06934-.25684-.31152-.67676-.43945-1.06348-.32129l-2.35059.71484c-.39941-.60254-.76172-1.22852-1.08398-1.87012l1.80664-1.69238c.29492-.27637.39453-.70215.25293-1.08105-.34082-.9082-.59375-1.85352-.75195-2.81055-.06543-.39941-.36523-.71973-.75879-.81152l-2.42676-.56641c-.02244-.36717-.03416-.72849-.03416-1.08201s.01172-.71484.03418-1.08203z"/><path d="m61.29102 10.80762-1.78516-.73242c-.12012-.35254-.26074-.69434-.4209-1.02344l.74219-1.77637c.13867-.33203.08789-.71387-.13281-.99805-.57031-.7373-1.23438-1.40137-1.97168-1.97168-.28516-.22266-.66797-.27246-.99805-.13281l-1.77637.74316c-.3291-.16016-.6709-.30176-1.02344-.42188l-.73242-1.78516c-.13672-.33301-.44141-.56641-.79883-.6123-1.04297-.13281-1.74414-.13281-2.78711 0-.35742.0459-.66211.2793-.79883.6123l-.73241 1.78517c-.35254.12012-.69434.26074-1.02344.4209l-1.77637-.74219c-.33301-.13867-.71484-.08887-.99902.13281-.73828.57324-1.40137 1.23633-1.9707 1.97168-.2207.28418-.27148.66602-.13281.99805l.74316 1.77637c-.16016.3291-.30176.6709-.42188 1.02344l-1.78516.73242c-.33301.13672-.56641.44141-.6123.79883-.06641.52148-.09668.96386-.09668 1.39355s.03027.87207.09668 1.39355c.0459.35742.2793.66211.6123.79883l1.78516.73242c.12012.35254.26074.69434.4209 1.02344l-.74219 1.77637c-.13867.33301-.08789.71387.13281.99902.57324.73828 1.23633 1.40137 1.97168 1.9707.28418.22168.66699.27051.99805.13281l1.77637-.74316c.3291.16016.6709.30176 1.02344.42188l.73242 1.78516c.13672.33301.44141.56641.79883.6123.52148.06641.96386.09668 1.39355.09668s.87207-.03027 1.39355-.09668c.35742-.0459.66211-.2793.79883-.6123l.73242-1.78516c.35254-.12012.69434-.26074 1.02344-.4209l1.77637.74219c.33105.1377.71387.08789.99805-.13281.7373-.57031 1.40137-1.23438 1.97168-1.97168.2207-.28418.27148-.66602.13281-.99805l-.74316-1.77637c.16016-.3291.30176-.6709.42188-1.02344l1.78516-.73242c.33301-.13672.56641-.44141.6123-.79883.0664-.52148.09667-.96386.09667-1.39355s-.03027-.87207-.09668-1.39355c-.0459-.35743-.2793-.66211-.6123-.79883zm-1.31348 2.76172-1.66504.68359c-.28418.11621-.49805.35645-.58203.65234-.15234.53516-.36133 1.04199-.62207 1.50684-.15039.26758-.16895.59082-.05078.875l.69141 1.65234c-.25293.28613-.52344.55664-.80957.80957l-1.65234-.69043c-.28418-.11914-.60547-.09961-.87402.0498-.46582.26172-.97363.4707-1.50781.62207-.2959.08398-.53613.29785-.65234.58203l-.68359 1.66504c-.40039.03125-.73828.03125-1.13867 0l-.68359-1.66504c-.11621-.28418-.35645-.49805-.65234-.58203-.53516-.15234-1.04199-.36133-1.50684-.62207-.26855-.15039-.59082-.16895-.875-.05078l-1.65234.69141c-.28613-.25293-.55664-.52344-.80957-.81055l.69043-1.65137c.11816-.28418.09961-.60645-.0498-.87402-.26172-.46582-.4707-.97363-.62207-1.50781-.08398-.2959-.29785-.53613-.58203-.65234l-1.66504-.68359c-.01566-.2002-.0225-.3877-.0225-.56934s.00684-.36914.02246-.56934l1.66504-.68359c.28418-.11621.49805-.35645.58203-.65234.15234-.53516.36133-1.04199.62207-1.50684.15039-.26758.16895-.59082.05078-.875l-.69141-1.65234c.25293-.28613.52344-.55664.81055-.80957l1.65137.69043c.28418.11914.60449.09961.87402-.0498.46582-.26172.97363-.4707 1.50781-.62207.2959-.08398.53613-.29785.65234-.58203l.68359-1.66504c.40039-.03125.73828-.03125 1.13867 0l.68359 1.66504c.11621.28418.35645.49805.65234.58203.53516.15234 1.04199.36133 1.50684.62207.26953.15137.59082.16992.875.05078l1.65234-.69141c.28613.25293.55664.52344.80957.80957l-.69043 1.65234c-.11816.28418-.09961.60645.0498.87402.26172.46582.4707.97363.62207 1.50781.08398.2959.29785.53613.58203.65234l1.66504.68359c.01565.20021.02249.38771.02249.56935s-.00684.36914-.02246.56934z"/><path d="m51 8c-2.75684 0-5 2.24316-5 5s2.24316 5 5 5 5-2.24316 5-5-2.24316-5-5-5zm0 8c-1.6543 0-3-1.3457-3-3s1.3457-3 3-3 3 1.3457 3 3-1.3457 3-3 3z"/><path d="m22 54c6.61719 0 12-5.38281 12-12s-5.38281-12-12-12-12 5.38281-12 12 5.38281 12 12 12zm0-22c5.51367 0 10 4.48633 10 10s-4.48633 10-10 10-10-4.48633-10-10 4.48633-10 10-10z"/><path d="m36.549 6.301h3.001v2h-3.001z" transform="matrix(.832 -.555 .555 .832 2.341 22.332)"/><path d="m28.229 11.848h3v2h-3z" transform="matrix(.832 -.555 .555 .832 -2.134 18.648)"/><path d="m32.389 9.074h3v2h-3z" transform="matrix(.832 -.555 .555 .832 .103 20.49)"/><path d="m15.748 20.168h3v2h-3z" transform="matrix(.832 -.555 .555 .832 -8.845 13.123)"/><path d="m19.908 17.395h3v2h-3z" transform="matrix(.832 -.555 .555 .832 -6.608 14.964)"/><path d="m24.068 14.621h3v2h-3z" transform="matrix(.832 -.555 .555 .832 -4.371 16.806)"/><path d="m41.272 46.714h3v2h-3z" transform="matrix(.515 -.857 .857 .515 -20.15 59.831)"/><path d="m43.844 42.426h3.001v2h-3.001z" transform="matrix(.515 -.857 .857 .515 -15.226 59.956)"/><path d="m46.416 38.139h3v2h-3z" transform="matrix(.515 -.857 .857 .515 -10.301 60.08)"/><path d="m54.134 25.276h3v2h-3z" transform="matrix(.515 -.857 .857 .515 4.473 60.455)"/><path d="m48.989 33.852h3v2h-3z" transform="matrix(.515 -.857 .857 .515 -5.376 60.205)"/><path d="m51.561 29.564h3v2h-3z" transform="matrix(.515 -.857 .857 .515 -.452 60.33)"/></svg>